{
  "accessors": [
    {
      "bufferView": 2,
      "componentType": 5126,
      "count": 7321,
      "max": [
        330.00408935546875,
        94.2332992553711,
        1013.7271728515625
      ],
      "min": [
        -329.4053955078125,
        -590.71728515625,
        365.2497863769531
      ],
      "type": "VEC3"
    },
    {
      "bufferView": 2,
      "byteOffset": 87852,
      "componentType": 5126,
      "count": 7321,
      "max": [
        1.0,
        0.999992847442627,
        1.0
      ],
      "min": [
        -1.0,
        -0.9999979734420776,
        -1.0
      ],
      "type": "VEC3"
    },
    {
      "bufferView": 3,
      "componentType": 5126,
      "count": 7321,
      "max": [
        0.9999996423721313,
        0.9999987483024597,
        0.9998864531517029,
        1.0
      ],
      "min": [
        -0.9999994039535522,
        -0.9999998807907104,
        -0.9993613958358765,
        -1.0
      ],
      "type": "VEC4"
    },
    {
      "bufferView": 1,
      "componentType": 5126,
      "count": 7321,
      "max": [
        0.9994999766349792,
        0.9950000047683716
      ],
      "min": [
        0.0005000000237487257,
        0.0005000000237487257
      ],
      "type": "VEC2"
    },
    {
      "bufferView": 0,
      "componentType": 5125,
      "count": 36444,
      "type": "SCALAR"
    },
    {
      "bufferView": 2,
      "byteOffset": 175704,
      "componentType": 5126,
      "count": 6507,
      "max": [
        333.70208740234375,
        25.5216007232666,
        735.3557739257813
      ],
      "min": [
        -386.1138000488281,
        -690.6270141601563,
        0.14630000293254852
      ],
      "type": "VEC3"
    },
    {
      "bufferView": 2,
      "byteOffset": 253788,
      "componentType": 5126,
      "count": 6507,
      "max": [
        1.0,
        1.0,
        1.0
      ],
      "min": [
        -1.0,
        -1.0,
        -1.0
      ],
      "type": "VEC3"
    },
    {
      "bufferView": 3,
      "byteOffset": 117136,
      "componentType": 5126,
      "count": 6507,
      "max": [
        1.0,
        1.0,
        0.9999997019767761,
        1.0
      ],
      "min": [
        -1.0,
        -1.0,
        -0.9999995827674866,
        -1.0
      ],
      "type": "VEC4"
    },
    {
      "bufferView": 1,
      "byteOffset": 58568,
      "componentType": 5126,
      "count": 6507,
      "max": [
        0.9975000023841858,
        0.9944000244140625
      ],
      "min": [
        0.03500000014901161,
        0.0005000000237487257
      ],
      "type": "VEC2"
    },
    {
      "bufferView": 0,
      "byteOffset": 145776,
      "componentType": 5125,
      "count": 31296,
      "type": "SCALAR"
    },
    {
      "bufferView": 2,
      "byteOffset": 331872,
      "componentType": 5126,
      "count": 930,
      "max": [
        192.5552978515625,
        -467.50439453125,
        337.2135925292969
      ],
      "min": [
        -195.89889526367188,
        -810.9945068359375,
        90.92030334472656
      ],
      "type": "VEC3"
    },
    {
      "bufferView": 2,
      "byteOffset": 343032,
      "componentType": 5126,
      "count": 930,
      "max": [
        1.0,
        1.0,
        0.9999971389770508
      ],
      "min": [
        -1.0,
        -0.9981253147125244,
        -1.0
      ],
      "type": "VEC3"
    },
    {
      "bufferView": 3,
      "byteOffset": 221248,
      "componentType": 5126,
      "count": 930,
      "max": [
        0.9920924305915833,
        0.9986749887466431,
        1.0,
        1.0
      ],
      "min": [
        -1.0,
        -0.9987768530845642,
        -1.0,
        -1.0
      ],
      "type": "VEC4"
    },
    {
      "bufferView": 1,
      "byteOffset": 110624,
      "componentType": 5126,
      "count": 930,
      "max": [
        0.9947999715805054,
        0.9936000108718872
      ],
      "min": [
        0.8090000152587891,
        0.4194999933242798
      ],
      "type": "VEC2"
    },
    {
      "bufferView": 0,
      "byteOffset": 270960,
      "componentType": 5125,
      "count": 5040,
      "type": "SCALAR"
    }
  ],
  "asset": {
    "extras": {
      "author": "Tyron (https://sketchfab.com/Omty)",
      "license": "CC-BY-4.0 (http://creativecommons.org/licenses/by/4.0/)",
      "source": "https://sketchfab.com/3d-models/barber-chair-6458816e73534df0a26ddc6567395d2c",
      "title": "Barber Chair"
    },
    "generator": "Sketchfab-12.68.0",
    "version": "2.0"
  },
  "bufferViews": [
    {
      "buffer": 0,
      "byteLength": 291120,
      "name": "floatBufferViews",
      "target": 34963
    },
    {
      "buffer": 0,
      "byteLength": 118064,
      "byteOffset": 291120,
      "byteStride": 8,
      "name": "floatBufferViews",
      "target": 34962
    },
    {
      "buffer": 0,
      "byteLength": 354192,
      "byteOffset": 409184,
      "byteStride": 12,
      "name": "floatBufferViews",
      "target": 34962
    },
    {
      "buffer": 0,
      "byteLength": 236128,
      "byteOffset": 763376,
      "byteStride": 16,
      "name": "floatBufferViews",
      "target": 34962
    }
  ],
  "buffers": [
    {
      "byteLength": 999504,
      "uri": "chair.bin"
    }
  ],
  "images": [
    {
      "uri": "textures/Leather_baseColor.jpeg"
    },
    {
      "uri": "textures/Leather_metallicRoughness.png"
    },
    {
      "uri": "textures/Leather_normal.png"
    },
    {
      "uri": "textures/Metal_baseColor.jpeg"
    },
    {
      "uri": "textures/Metal_metallicRoughness.png"
    },
    {
      "uri": "textures/Metal_normal.png"
    },
    {
      "uri": "textures/Plastic_baseColor.jpeg"
    },
    {
      "uri": "textures/Plastic_metallicRoughness.png"
    },
    {
      "uri": "textures/Plastic_normal.png"
    }
  ],
  "materials": [
    {
      "doubleSided": true,
      "name": "Leather",
      "normalTexture": {
        "index": 2
      },
      "occlusionTexture": {
        "index": 1
      },
      "pbrMetallicRoughness": {
        "baseColorTexture": {
          "index": 0
        },
        "metallicRoughnessTexture": {
          "index": 1
        }
      }
    },
    {
      "doubleSided": true,
      "name": "Metal",
      "normalTexture": {
        "index": 5
      },
      "occlusionTexture": {
        "index": 4
      },
      "pbrMetallicRoughness": {
        "baseColorTexture": {
          "index": 3
        },
        "metallicRoughnessTexture": {
          "index": 4
        }
      }
    },
    {
      "doubleSided": true,
      "name": "Plastic",
      "normalTexture": {
        "index": 8
      },
      "occlusionTexture": {
        "index": 7
      },
      "pbrMetallicRoughness": {
        "baseColorTexture": {
          "index": 6
        },
        "metallicRoughnessTexture": {
          "index": 7
        }
      }
    }
  ],
  "meshes": [
    {
      "name": "Object_0",
      "primitives": [
        {
          "attributes": {
            "NORMAL": 1,
            "POSITION": 0,
            "TANGENT": 2,
            "TEXCOORD_0": 3
          },
          "indices": 4,
          "material": 0,
          "mode": 4
        }
      ]
    },
    {
      "name": "Object_1",
      "primitives": [
        {
          "attributes": {
            "NORMAL": 6,
            "POSITION": 5,
            "TANGENT": 7,
            "TEXCOORD_0": 8
          },
          "indices": 9,
          "material": 1,
          "mode": 4
        }
      ]
    },
    {
      "name": "Object_2",
      "primitives": [
        {
          "attributes": {
            "NORMAL": 11,
            "POSITION": 10,
            "TANGENT": 12,
            "TEXCOORD_0": 13
          },
          "indices": 14,
          "material": 2,
          "mode": 4
        }
      ]
    }
  ],
  "nodes": [
    {
      "children": [
        1
      ],
      "matrix": [
        1.0,
        0.0,
        0.0,
        0.0,
        0.0,
        2.220446049250313e-16,
        -1.0,
        0.0,
        0.0,
        1.0,
        2.220446049250313e-16,
        0.0,
        0.0,
        0.0,
        0.0,
        1.0
      ],
      "name": "Sketchfab_model"
    },
    {
      "children": [
        2,
        3,
        4
      ],
      "name": "BarberChair_low.obj.cleaner.materialmerger.gles"
    },
    {
      "mesh": 0,
      "name": "Object_2"
    },
    {
      "mesh": 1,
      "name": "Object_3"
    },
    {
      "mesh": 2,
      "name": "Object_4"
    }
  ],
  "samplers": [
    {
      "magFilter": 9729,
      "minFilter": 9987,
      "wrapS": 10497,
      "wrapT": 10497
    }
  ],
  "scene": 0,
  "scenes": [
    {
      "name": "Sketchfab_Scene",
      "nodes": [
        0
      ]
    }
  ],
  "textures": [
    {
      "sampler": 0,
      "source": 0
    },
    {
      "sampler": 0,
      "source": 1
    },
    {
      "sampler": 0,
      "source": 2
    },
    {
      "sampler": 0,
      "source": 3
    },
    {
      "sampler": 0,
      "source": 4
    },
    {
      "sampler": 0,
      "source": 5
    },
    {
      "sampler": 0,
      "source": 6
    },
    {
      "sampler": 0,
      "source": 7
    },
    {
      "sampler": 0,
      "source": 8
    }
  ]
}
